<?xml version="1.0" encoding="UTF-8" standalone="no"?>
<!DOCTYPE svg PUBLIC "-//W3C//DTD SVG 1.1//EN" "http://www.w3.org/Graphics/SVG/1.1/DTD/svg11.dtd">
<svg width="100%" height="100%" viewBox="0 0 576 512" version="1.1" xmlns="http://www.w3.org/2000/svg" xmlns:xlink="http://www.w3.org/1999/xlink" xml:space="preserve" xmlns:serif="http://www.serif.com/" style="fill-rule:evenodd;clip-rule:evenodd;stroke-linejoin:round;stroke-miterlimit:2;">
    <path d="M194.7,245.7C216.6,223.1 252.8,223.1 274.7,245.7L288,259.4L301.3,245.7C323.2,223.1 359.4,223.1 381.3,245.7C402.4,267.3 402.4,301.8 381.3,323.5L305.2,401.8C295.8,411.5 280.2,411.5 270.8,401.8L194.7,323.5C173.6,301.8 173.6,267.3 194.7,245.7ZM263.2,256.8C247.6,240.8 221.8,240.8 206.1,256.8C191.1,272.3 191.1,296.9 206.1,312.3L282.3,390.6C285.4,393.9 290.6,393.9 293.7,390.6L369.9,312.3C384.9,296.9 384.9,272.3 369.9,256.8C354.2,240.8 328.4,240.8 312.8,256.8L288,282.3L263.2,256.8ZM282.7,2.011C285.7,-0.67 290.3,-0.67 293.3,2.011L384,82.34L384,56C384,42.75 394.7,32 408,32L488,32C501.3,32 512,42.75 512,56L512,195.7L573.3,250C576.6,252.9 576.9,257.1 573.1,261.3C571.1,264.6 566,264.9 562.7,261.1L512,217.1L512,448C512,483.3 483.3,512 448,512L128,512C92.65,512 64,483.3 64,448L64,217.1L13.3,261.1C9.997,264.9 4.941,264.6 2.012,261.3C-0.918,257.1 -0.612,252.9 2.696,250L282.7,2.011ZM496,181.5L496,56C496,51.58 492.4,48 488,48L408,48C403.6,48 400,51.58 400,56L400,96.51L496,181.5ZM288,18.69L80,202.9L80,448C80,474.5 101.5,496 128,496L448,496C474.5,496 496,474.5 496,448L496,202.9L384.3,103.1L384,103.1L384,103.7L288,18.69Z" style="fill:rgb(255,250,240);fill-rule:nonzero;"/>
</svg>
